<?xml version="1.0" encoding="utf-8"?>
<!-- Generator: Adobe Illustrator 23.0.5, SVG Export Plug-In . SVG Version: 6.00 Build 0)  -->
<svg version="1.1" id="Capa_1" xmlns="http://www.w3.org/2000/svg" xmlns:xlink="http://www.w3.org/1999/xlink" x="0px" y="0px"
	 viewBox="0 0 293 64.9" style="enable-background:new 0 0 293 64.9;" xml:space="preserve">
<style type="text/css">
	.st0{fill:#DE843B;}
	.st1{fill:#F0F0F0;}
	.st2{font-family:'Rockwell-Bold';}
	.st3{font-size:48px;}
</style>
<g>
	<path class="st0" d="M77.7,52.9c-1.9,1.6-4,2.6-6.3,3.1s-4.7,0.8-7.1,0.8c-2.4,0-4.7-0.4-6.8-1.2c-2.1-0.8-3.9-2.2-5.5-4
		c-1.6-1.9-2.8-4.3-3.7-7.2c-0.9-3-1.3-6.6-1.3-10.9c0-0.4,0-0.7,0.1-1c0-0.3,0.2-0.4,0.6-0.4h30.9c1.1,0,1.6-0.9,1.6-2.6
		c0-3.4-0.5-6.6-1.4-9.5c-1-2.9-2.3-5.4-4.1-7.5s-3.9-3.8-6.3-5c-2.5-1.2-5.2-1.8-8.2-1.8c-3.6,0-6.9,0.8-9.9,2.3s-5.6,3.7-7.7,6.3
		c-2.1,2.7-3.8,5.8-5,9.4c-0.4,1.1-0.6,2.2-0.9,3.3c-1.2-2-2.6-4-4.4-5.7c-0.2-0.2-0.5-0.5-0.7-0.7c-1.7-1.7-4-3.9-6.5-5.8
		c-1.3-1-2.6-1.8-3.8-2.5c-0.6-0.3-1.3-0.7-1.8-1c-0.6-0.3-1.2-0.5-1.7-0.7s-1-0.3-1.5-0.5c-0.4-0.2-0.8-0.2-1.2-0.3
		c-0.7-0.1-1-0.2-1-0.2s0.4,0,1,0.1c0.3,0,0.7,0,1.2,0.2c0.5,0.1,1,0.2,1.5,0.3c0.6,0.2,1.1,0.4,1.8,0.6c0.6,0.3,1.3,0.5,1.9,0.8
		c1.3,0.6,2.7,1.4,4,2.2c2.7,1.7,5.2,3.7,7,5.3c0.4,0.3,0.7,0.6,1,0.9c0-0.3-0.1-0.7-0.2-1c-0.1-0.8-0.3-1.8-0.6-2.7
		c-0.3-1-0.7-2-1.1-3.2c-1-2.1-2.3-4.4-4.1-6.3c-0.9-1-1.9-1.9-2.9-2.7S22.4,2.6,21.2,2c-1.2-0.6-2.5-1-3.7-1.4
		c-1.3-0.3-2.6-0.5-3.9-0.6C12.3,0,11,0,9.8,0.3C8.6,0.6,7.4,0.9,6.4,1.4C5.3,1.9,4.4,2.5,3.6,3s-1.5,1.3-2,1.8S0.7,5.9,0.4,6.2
		C0.1,6.6,0,6.8,0,6.8S0.2,7,0.4,7.4c0.3,0.3,0.7,0.9,1.2,1.4c0.4,0.5,1,1.1,1.6,1.8c0.6,0.7,1.2,1.4,1.9,2.1s1.3,1.5,2.1,2.1
		c0.7,0.7,1.5,1.4,2.2,2c1.5,1.3,3.2,2.3,5,3.2c0.9,0.5,1.8,0.8,2.8,1.2c1,0.3,2,0.6,3,0.8c1,0.2,2,0.4,3,0.5s2,0.1,3,0.1
		s1.9-0.1,2.8-0.1c0.6,0,1.2-0.1,1.7-0.2c2.3,2.2,4.1,4.8,5.4,7.4c-0.3,1.8-0.4,3.7-0.4,5.7c0,4.2,0.5,8.1,1.6,11.7
		c1,3.6,2.6,6.7,4.8,9.4c2.1,2.6,4.8,4.7,8,6.2s7,2.2,11.3,2.2s7.8-0.7,10.7-2c2.9-1.4,5.5-3.7,7.8-7.1c0.5-0.6,0.4-1.3-0.3-2.2
		C78.9,52.5,78.3,52.3,77.7,52.9z M47.5,24.4c0.2-1.9,0.6-3.7,1.1-5.4c0.5-1.7,1.3-3.2,2.2-4.5c1-1.3,2.1-2.4,3.5-3.1
		c1.4-0.8,3.1-1.2,5-1.2c1.6,0,3,0.4,4.2,1.1c1.3,0.7,2.3,1.7,3.2,3c0.9,1.2,1.5,2.7,2,4.3c0.5,1.6,0.7,3.2,0.7,5c0,0.6,0,1.2,0,1.7
		s-0.1,0.9-0.2,1.3c-0.1,0.4-0.3,0.7-0.6,0.9c-0.3,0.2-0.7,0.3-1.2,0.3H47.8c-0.3,0-0.4-0.3-0.5-0.9C47.3,26.1,47.3,25.4,47.5,24.4z
		"/>
</g>
<text transform="matrix(1 0 0 1 103 42.6)" class="st1 st2 st3">Product</text>
<path class="st0" d="M108.9,63.5C121.8,56,278,56.3,278,56.3l-84.4-6.2L108.9,63.5z"/>
</svg>
